<svg aria-hidden="true" style="position: absolute; width: 0; height: 0; overflow: hidden;" version="1.1" xmlns="http://www.w3.org/2000/svg" xmlns:xlink="http://www.w3.org/1999/xlink">
<defs>
<symbol id="icon-arrow_back" viewBox="0 0 32 32">
<path stroke-linejoin="miter" stroke-linecap="butt" stroke-miterlimit="4" stroke-width="1.3333" d="M16.010 6.249c0.114 0 0.212 0.035 0.322 0.145 0.11 0.115 0.145 0.217 0.145 0.332-0 0.116-0.035 0.214-0.145 0.324l-8.482 8.482h17.88c0.162 0 0.262 0.047 0.348 0.132 0.083 0.082 0.129 0.177 0.129 0.337s-0.046 0.255-0.129 0.337c-0.085 0.084-0.186 0.131-0.348 0.132h-17.88l8.474 8.473c0.11 0.11 0.147 0.212 0.148 0.335v0.001c0.001 0.089-0.019 0.167-0.074 0.246l-0.069 0.082c-0.107 0.108-0.204 0.143-0.323 0.142-0.126-0.001-0.23-0.041-0.341-0.151l-9.264-9.264c-0.071-0.072-0.105-0.128-0.121-0.167v-0.001c-0.020-0.048-0.031-0.102-0.031-0.165s0.012-0.116 0.031-0.163v-0.001c0.016-0.038 0.050-0.095 0.121-0.167l9.267-9.267c0.121-0.116 0.227-0.152 0.342-0.152z"></path>
</symbol>
<symbol id="icon-arrow_forward" viewBox="0 0 32 32">
<path stroke-linejoin="miter" stroke-linecap="butt" stroke-miterlimit="4" stroke-width="1.3333" d="M15.993 6.253c0.095 0.001 0.177 0.023 0.259 0.081l0.082 0.070 9.264 9.264c0.071 0.072 0.105 0.128 0.121 0.167v0.001c0.020 0.048 0.031 0.102 0.031 0.165s-0.012 0.116-0.031 0.163v0.001c-0.016 0.038-0.050 0.094-0.121 0.167l-9.272 9.264c-0.122 0.12-0.227 0.155-0.337 0.155-0.108-0-0.204-0.033-0.315-0.147l-0.007-0.007-0.069-0.081c-0.056-0.079-0.075-0.157-0.075-0.243s0.020-0.163 0.075-0.242l0.069-0.081 8.482-8.482h-17.88c-0.163-0-0.259-0.047-0.34-0.128h-0.001c-0.081-0.081-0.128-0.179-0.128-0.341s0.046-0.26 0.128-0.341h0.001c0.081-0.081 0.177-0.127 0.34-0.128h17.88l-8.474-8.474c-0.082-0.082-0.124-0.16-0.141-0.246l-0.008-0.090c-0.001-0.12 0.034-0.218 0.141-0.326l0.001-0.001c0.107-0.107 0.205-0.143 0.324-0.142z"></path>
</symbol>
<symbol id="icon-bookmark" viewBox="0 0 32 32">
<path d="M16 24.223l-6.358 2.72c-0.757 0.326-1.475 0.265-2.155-0.184s-1.020-1.083-1.020-1.905v-18.95c0-0.616 0.225-1.149 0.676-1.601s0.982-0.678 1.595-0.678h14.523c0.616 0 1.149 0.226 1.601 0.678s0.678 0.985 0.678 1.601v18.95c0 0.821-0.341 1.456-1.024 1.905s-1.402 0.51-2.159 0.184l-6.358-2.72zM16 21.794l7.262 3.061v-18.95h-14.523v18.95l7.262-3.061zM16 5.905v0z"></path>
</symbol>
<symbol id="icon-chevron_left" viewBox="0 0 32 32">
<path stroke-linejoin="miter" stroke-linecap="butt" stroke-miterlimit="4" stroke-width="1.3333" d="M18.716 8.865c0.134 0 0.237 0.041 0.341 0.145s0.145 0.207 0.145 0.341-0.040 0.237-0.145 0.341l-6.276 6.276 6.276 6.275c0.104 0.104 0.133 0.193 0.129 0.301-0.005 0.125-0.047 0.233-0.161 0.348-0.104 0.104-0.207 0.146-0.341 0.146s-0.237-0.042-0.341-0.146l-6.592-6.591c-0.036-0.036-0.063-0.069-0.082-0.096l-0.039-0.070c-0.020-0.047-0.031-0.101-0.031-0.165 0-0.032 0.002-0.063 0.008-0.090l0.023-0.077c0.016-0.038 0.049-0.094 0.121-0.167l6.626-6.625c0.104-0.104 0.206-0.144 0.34-0.145z"></path>
</symbol>
<symbol id="icon-chevron_right" viewBox="0 0 32 32">
<path stroke-linejoin="miter" stroke-linecap="butt" stroke-miterlimit="4" stroke-width="1.3333" d="M12.516 8.897c0.134 0 0.237 0.041 0.341 0.145l6.592 6.592c0.072 0.072 0.105 0.128 0.121 0.165v0.001c0.020 0.047 0.031 0.1 0.031 0.165s-0.012 0.118-0.031 0.165v0.001c-0.016 0.037-0.049 0.093-0.121 0.165l-6.625 6.625c-0.104 0.104-0.193 0.133-0.301 0.129-0.125-0.005-0.233-0.047-0.348-0.161-0.104-0.104-0.146-0.207-0.146-0.341s0.042-0.237 0.146-0.341l6.242-6.242-6.276-6.276c-0.104-0.104-0.133-0.192-0.129-0.299 0.005-0.126 0.048-0.234 0.163-0.349 0.104-0.104 0.206-0.144 0.34-0.145z"></path>
</symbol>
<symbol id="icon-close" viewBox="0 0 32 32">
<path stroke-linejoin="miter" stroke-linecap="butt" stroke-miterlimit="4" stroke-width="1.3333" d="M23.466 7.9c0.219 0 0.355 0.065 0.462 0.172s0.172 0.242 0.172 0.461c0 0.219-0.065 0.355-0.172 0.462l-7.005 7.005 7.005 7.004c0.107 0.107 0.172 0.243 0.172 0.462s-0.065 0.355-0.172 0.462-0.243 0.172-0.462 0.172c-0.219 0-0.355-0.065-0.462-0.172l-7.004-7.005-7.005 7.005c-0.107 0.107-0.243 0.172-0.462 0.172s-0.354-0.065-0.461-0.172c-0.107-0.107-0.172-0.243-0.172-0.462s0.065-0.355 0.172-0.462l7.004-7.004-7.004-7.005c-0.107-0.107-0.172-0.243-0.172-0.462s0.065-0.354 0.172-0.461 0.242-0.172 0.461-0.172c0.219 0 0.355 0.065 0.462 0.172l7.005 7.004 7.004-7.004c0.107-0.107 0.243-0.172 0.462-0.172z"></path>
</symbol>
<symbol id="icon-communication" viewBox="0 0 32 32">
<path d="M1.15 21.271v-0.569c0-1.243 0.618-2.059 1.853-2.45s2.329-0.586 3.283-0.586c0.954 0 2.048 0.195 3.283 0.584s1.853 1.207 1.853 2.451v0.569h-10.271zM6.284 15.881c-0.725 0-1.345-0.259-1.861-0.776s-0.773-1.14-0.773-1.866 0.258-1.348 0.775-1.863c0.516-0.515 1.137-0.773 1.862-0.773s1.345 0.259 1.861 0.776c0.516 0.517 0.773 1.139 0.773 1.864s-0.258 1.346-0.775 1.864c-0.516 0.517-1.137 0.776-1.862 0.776zM13.244 17.88c-0.255 0-0.466-0.080-0.632-0.24s-0.249-0.365-0.249-0.616c0-0.125 0.083-0.342 0.249-0.65 0.172-0.244 0.309-0.5 0.409-0.767s0.15-0.545 0.15-0.834c0-0.289-0.050-0.575-0.15-0.858s-0.237-0.532-0.411-0.749c-0.072-0.097-0.131-0.198-0.177-0.303s-0.069-0.216-0.069-0.333c0-0.254 0.083-0.464 0.25-0.629s0.377-0.248 0.631-0.248c0.112 0 0.228 0.018 0.346 0.054s0.211 0.098 0.278 0.187c0.388 0.405 0.673 0.856 0.853 1.353s0.271 1.006 0.271 1.526c0 0.516-0.097 1.035-0.291 1.556s-0.48 0.968-0.856 1.34c-0.089 0.089-0.182 0.146-0.278 0.171s-0.204 0.038-0.322 0.038zM15.783 20.415c-0.26 0-0.471-0.084-0.633-0.251s-0.243-0.379-0.243-0.635c0-0.118 0.022-0.228 0.065-0.33s0.101-0.201 0.173-0.296c0.546-0.639 0.951-1.307 1.215-2.005s0.395-1.405 0.395-2.125-0.132-1.434-0.395-2.144c-0.264-0.71-0.669-1.376-1.216-1.998-0.071-0.095-0.129-0.192-0.172-0.291s-0.065-0.211-0.065-0.335c0-0.258 0.083-0.469 0.25-0.633s0.377-0.246 0.632-0.246c0.13 0 0.252 0.030 0.363 0.091s0.214 0.141 0.308 0.242c0.695 0.8 1.215 1.649 1.558 2.547s0.516 1.819 0.516 2.764c0 0.945-0.172 1.866-0.516 2.764s-0.863 1.747-1.558 2.547c-0.087 0.111-0.187 0.194-0.299 0.25s-0.238 0.083-0.378 0.083zM20.579 21.271v-0.569c0-1.244 0.617-2.061 1.853-2.451s2.329-0.584 3.283-0.584c0.954 0 2.048 0.195 3.283 0.586s1.853 1.207 1.853 2.45v0.569h-10.271zM25.713 15.881c-0.725 0-1.345-0.259-1.861-0.776s-0.773-1.14-0.773-1.866 0.258-1.348 0.775-1.863c0.516-0.515 1.137-0.773 1.862-0.773s1.345 0.259 1.861 0.776c0.516 0.517 0.773 1.139 0.773 1.864s-0.258 1.346-0.775 1.864c-0.516 0.517-1.137 0.776-1.862 0.776z"></path>
</symbol>
<symbol id="icon-edit" viewBox="0 0 32 32">
<path d="M6.064 25.928h1.475l15.327-15.294-1.459-1.467-15.343 15.302v1.459zM4.936 28.199c-0.326 0-0.597-0.108-0.812-0.323s-0.323-0.486-0.323-0.812v-2.561c0-0.304 0.062-0.601 0.187-0.891s0.289-0.537 0.493-0.742l18.471-18.446c0.183-0.188 0.404-0.335 0.661-0.441s0.525-0.158 0.803-0.158c0.255 0 0.51 0.053 0.765 0.158s0.491 0.25 0.707 0.433l1.73 1.706c0.205 0.216 0.355 0.453 0.449 0.711s0.141 0.517 0.141 0.777c0 0.26-0.053 0.524-0.158 0.79s-0.25 0.494-0.433 0.682l-18.471 18.438c-0.21 0.204-0.458 0.369-0.746 0.493s-0.583 0.187-0.887 0.187h-2.577zM22.14 9.893l-0.733-0.725 1.459 1.467-0.725-0.741z"></path>
</symbol>
<symbol id="icon-Facebook" viewBox="0 0 32 32">
<path d="M29.333 16.405c0-7.409-5.969-13.415-13.333-13.415s-13.333 6.006-13.333 13.415c0 6.696 4.876 12.245 11.25 13.252v-9.374h-3.385v-3.878h3.385v-2.955c0-3.362 1.991-5.219 5.036-5.219 1.459 0 2.985 0.262 2.985 0.262v3.301h-1.681c-1.656 0-2.173 1.034-2.173 2.095v2.516h3.698l-0.591 3.878h-3.107v9.374c6.374-1.006 11.25-6.556 11.25-13.252z"></path>
</symbol>
<symbol id="icon-Instagram" viewBox="0 0 32 32">
<path d="M16.006 6.488c3.206 0 3.585 0.014 4.846 0.071 1.172 0.052 1.804 0.248 2.227 0.412 0.558 0.216 0.961 0.478 1.378 0.895 0.422 0.422 0.679 0.82 0.9 1.378 0.164 0.422 0.361 1.059 0.412 2.226 0.056 1.266 0.071 1.645 0.071 4.847s-0.014 3.585-0.071 4.847c-0.052 1.172-0.248 1.804-0.412 2.227-0.216 0.558-0.478 0.961-0.895 1.377-0.422 0.422-0.82 0.679-1.377 0.9-0.422 0.164-1.060 0.361-2.227 0.413-1.266 0.056-1.645 0.070-4.847 0.070s-3.585-0.014-4.847-0.070c-1.172-0.052-1.804-0.248-2.226-0.413-0.558-0.216-0.961-0.478-1.378-0.895-0.422-0.422-0.679-0.82-0.9-1.378-0.164-0.422-0.361-1.060-0.412-2.226-0.056-1.266-0.071-1.645-0.071-4.847s0.014-3.585 0.071-4.847c0.052-1.172 0.248-1.804 0.412-2.226 0.216-0.558 0.478-0.961 0.895-1.378 0.422-0.422 0.82-0.679 1.378-0.9 0.422-0.164 1.059-0.361 2.226-0.412 1.261-0.056 1.641-0.071 4.847-0.071h0.001zM16.006 4.328c-3.258 0-3.665 0.014-4.945 0.071-1.275 0.056-2.151 0.262-2.91 0.558-0.792 0.309-1.462 0.717-2.127 1.387-0.67 0.666-1.078 1.336-1.387 2.123-0.295 0.764-0.502 1.636-0.558 2.91-0.056 1.285-0.071 1.692-0.071 4.949s0.014 3.665 0.071 4.945c0.056 1.275 0.262 2.151 0.558 2.91 0.31 0.792 0.717 1.462 1.387 2.127 0.665 0.665 1.336 1.078 2.123 1.383 0.764 0.295 1.636 0.502 2.91 0.558 1.279 0.056 1.687 0.071 4.945 0.071s3.665-0.014 4.945-0.071c1.275-0.056 2.151-0.262 2.91-0.558 0.787-0.305 1.458-0.717 2.123-1.383s1.078-1.335 1.383-2.123c0.295-0.764 0.502-1.635 0.558-2.91 0.056-1.279 0.070-1.687 0.070-4.945s-0.014-3.665-0.070-4.945c-0.056-1.275-0.263-2.151-0.558-2.91-0.295-0.797-0.703-1.467-1.373-2.133-0.665-0.665-1.336-1.078-2.123-1.383-0.764-0.295-1.636-0.502-2.91-0.558-1.284-0.061-1.692-0.075-4.949-0.075l-0.001 0.001z"></path>
<path d="M16.006 10.163c-3.402 0-6.163 2.76-6.163 6.163s2.76 6.163 6.163 6.163 6.163-2.76 6.163-6.163c0-3.402-2.76-6.163-6.163-6.163zM16.006 20.324c-2.208 0-3.998-1.79-3.998-3.998s1.79-3.998 3.998-3.998 3.998 1.79 3.998 3.998c0 2.208-1.79 3.998-3.998 3.998z"></path>
<path d="M23.851 9.919c0 0.795-0.644 1.439-1.439 1.439s-1.439-0.644-1.439-1.439c0-0.795 0.644-1.439 1.439-1.439s1.439 0.644 1.439 1.439z"></path>
</symbol>
<symbol id="icon-keyboard_arrow_down" viewBox="0 0 32 32">
<path stroke-linejoin="miter" stroke-linecap="butt" stroke-miterlimit="4" stroke-width="1.3333" d="M9.449 12.031c0.134 0 0.237 0.041 0.341 0.145l6.208 6.244 6.243-6.244c0.104-0.103 0.192-0.133 0.299-0.129 0.126 0.005 0.234 0.048 0.349 0.163 0.104 0.104 0.145 0.207 0.145 0.341s-0.041 0.236-0.145 0.34l-6.559 6.559c-0.072 0.072-0.129 0.107-0.167 0.122-0.047 0.020-0.101 0.031-0.165 0.031-0.033 0-0.062-0.004-0.090-0.009l-0.077-0.022-0.070-0.040c-0.028-0.019-0.059-0.046-0.095-0.082l-6.592-6.591c-0.098-0.098-0.133-0.191-0.129-0.318 0.005-0.143 0.053-0.255 0.163-0.365 0.104-0.104 0.206-0.144 0.34-0.145z"></path>
</symbol>
<symbol id="icon-keyboard_arrow_up" viewBox="0 0 32 32">
<path stroke-linejoin="miter" stroke-linecap="butt" stroke-miterlimit="4" stroke-width="1.3333" d="M16 11.605c0.125 0 0.227 0.038 0.333 0.145l6.591 6.592c0.109 0.109 0.145 0.208 0.145 0.324s-0.035 0.215-0.145 0.324c-0.104 0.104-0.207 0.145-0.341 0.145s-0.236-0.041-0.34-0.145l-0.001-0.001-6.243-6.207-6.241 6.241c-0.104 0.104-0.192 0.133-0.299 0.129-0.126-0.005-0.234-0.047-0.349-0.161-0.104-0.104-0.145-0.207-0.145-0.341s0.040-0.237 0.145-0.341l6.559-6.559c0.107-0.107 0.207-0.144 0.332-0.145z"></path>
</symbol>
<symbol id="icon-logout" viewBox="0 0 32 32">
<path d="M6.072 28.199c-0.613 0-1.145-0.225-1.595-0.676s-0.676-0.982-0.676-1.595v-19.857c0-0.616 0.225-1.149 0.676-1.601s0.982-0.678 1.595-0.678h8.807c0.321 0 0.59 0.111 0.808 0.334s0.327 0.495 0.327 0.816c0 0.322-0.109 0.59-0.327 0.806s-0.487 0.323-0.808 0.323h-8.807v19.857h8.807c0.321 0 0.59 0.11 0.808 0.329s0.327 0.49 0.327 0.812c0 0.322-0.109 0.591-0.327 0.806s-0.487 0.323-0.808 0.323h-8.807zM23.856 17.136h-10.768c-0.32 0-0.59-0.11-0.808-0.329s-0.327-0.49-0.327-0.812c0-0.322 0.109-0.591 0.327-0.806s0.488-0.323 0.808-0.323h10.701l-2.564-2.564c-0.227-0.228-0.334-0.495-0.323-0.8s0.13-0.571 0.357-0.795c0.226-0.229 0.496-0.342 0.81-0.34s0.585 0.117 0.815 0.344l4.529 4.529c0.221 0.229 0.332 0.494 0.332 0.797s-0.111 0.568-0.332 0.794l-4.496 4.496c-0.222 0.226-0.486 0.335-0.792 0.327s-0.577-0.126-0.812-0.352c-0.218-0.227-0.328-0.497-0.331-0.811s0.112-0.586 0.344-0.813l2.531-2.539z"></path>
</symbol>
<symbol id="icon-menu" viewBox="0 0 32 32">
<path d="M4.936 24.295c-0.321 0-0.59-0.11-0.808-0.329s-0.327-0.493-0.327-0.82c0-0.322 0.109-0.591 0.327-0.807s0.488-0.323 0.808-0.323h22.127c0.321 0 0.591 0.11 0.812 0.329s0.331 0.49 0.331 0.812c0 0.328-0.11 0.599-0.331 0.814s-0.492 0.323-0.812 0.323h-22.127zM4.936 17.136c-0.321 0-0.59-0.11-0.808-0.329s-0.327-0.49-0.327-0.812c0-0.322 0.109-0.591 0.327-0.806s0.488-0.323 0.808-0.323h22.127c0.321 0 0.591 0.11 0.812 0.329s0.331 0.49 0.331 0.812c0 0.322-0.11 0.591-0.331 0.806s-0.492 0.323-0.812 0.323h-22.127zM4.936 9.984c-0.321 0-0.59-0.11-0.808-0.329s-0.327-0.493-0.327-0.82c0-0.322 0.109-0.591 0.327-0.806s0.488-0.323 0.808-0.323h22.127c0.321 0 0.591 0.11 0.812 0.329s0.331 0.49 0.331 0.812c0 0.328-0.11 0.599-0.331 0.815s-0.492 0.323-0.812 0.323h-22.127z"></path>
</symbol>
<symbol id="icon-travel_luggage_and_bags" viewBox="0 0 32 32">
<path d="M6.467 25.762v-15.69c0-0.632 0.221-1.17 0.663-1.614s0.978-0.665 1.608-0.665h3.341v-4.206c0-0.325 0.119-0.608 0.358-0.851s0.521-0.364 0.846-0.364h5.435c0.325 0 0.607 0.121 0.846 0.364s0.358 0.526 0.358 0.851v4.206h3.341c0.632 0 1.17 0.222 1.614 0.665s0.665 0.981 0.665 1.614v15.69c0 0.63-0.222 1.166-0.665 1.608s-0.981 0.663-1.614 0.663v0.548c0 0.297-0.099 0.546-0.298 0.747s-0.448 0.301-0.75 0.301c-0.305 0-0.566-0.093-0.784-0.279s-0.306-0.442-0.263-0.769v-0.548h-10.332v0.548c0 0.297-0.099 0.546-0.298 0.747s-0.449 0.301-0.75 0.301c-0.305 0-0.566-0.093-0.785-0.279s-0.306-0.442-0.263-0.769v-0.548c-0.63 0-1.166-0.221-1.608-0.663s-0.663-0.978-0.663-1.608zM14.167 7.793h3.667v-3.333h-3.667v3.333zM16 15.778c1.276 0 2.536-0.142 3.779-0.425s2.404-0.763 3.482-1.436v-3.844h-14.523v3.846c1.078 0.673 2.239 1.151 3.483 1.435s2.503 0.425 3.779 0.425zM14.952 18.429v-0.43c-1.112-0.067-2.191-0.246-3.236-0.538s-2.038-0.722-2.978-1.289v9.59h14.523v-9.598c-0.939 0.567-1.932 0.997-2.978 1.289s-2.124 0.474-3.236 0.546v0.43c0 0.297-0.1 0.546-0.299 0.747s-0.451 0.301-0.754 0.301c-0.303 0-0.552-0.099-0.748-0.298s-0.294-0.449-0.294-0.75z"></path>
</symbol>
<symbol id="icon-wand_stars" viewBox="0 0 32 32">
<path d="M21.848 16.962l-3.113 5.020c-0.178 0.294-0.429 0.408-0.754 0.341s-0.532-0.258-0.621-0.575l-1.092-4.41-10.080 10.031c-0.227 0.232-0.492 0.348-0.796 0.348s-0.569-0.116-0.796-0.348c-0.226-0.227-0.34-0.492-0.34-0.796s0.113-0.569 0.34-0.796l10.047-10.039-4.425-1.092c-0.316-0.089-0.507-0.296-0.571-0.62s0.048-0.579 0.337-0.762l5.020-3.146-0.408-5.869c-0.022-0.339 0.118-0.586 0.421-0.741s0.579-0.122 0.829 0.1l4.504 3.788 5.461-2.189c0.311-0.111 0.58-0.053 0.808 0.175s0.286 0.497 0.175 0.808l-2.222 5.461 3.788 4.512c0.222 0.25 0.261 0.526 0.117 0.829s-0.386 0.443-0.725 0.421l-5.902-0.449zM4.215 7.999c-0.122-0.116-0.183-0.253-0.183-0.411s0.061-0.297 0.183-0.418l1.629-1.629c0.116-0.116 0.253-0.175 0.41-0.175s0.297 0.058 0.419 0.175l1.588 1.596c0.122 0.122 0.182 0.26 0.182 0.414s-0.061 0.293-0.182 0.415l-1.629 1.629c-0.122 0.122-0.26 0.182-0.415 0.182s-0.293-0.061-0.414-0.182l-1.588-1.596zM18.649 18.049l2.052-3.304 3.896 0.292-2.536-2.987 1.468-3.604-3.604 1.46-2.995-2.536 0.3 3.896-3.312 2.077 3.796 0.943 0.935 3.763zM24.035 27.785l-1.629-1.621c-0.122-0.122-0.177-0.26-0.166-0.414s0.077-0.293 0.199-0.415l1.596-1.588c0.116-0.122 0.253-0.183 0.411-0.183s0.297 0.061 0.418 0.183l1.629 1.621c0.116 0.122 0.169 0.26 0.158 0.415s-0.075 0.293-0.191 0.414l-1.596 1.588c-0.122 0.122-0.26 0.183-0.414 0.183s-0.293-0.061-0.415-0.183z"></path>
</symbol>
<symbol id="icon-X" viewBox="0 0 32 32">
<path d="M22.901 5.657h3.68l-8.040 9.037 9.459 12.297h-7.406l-5.801-7.458-6.637 7.458h-3.682l8.6-9.666-9.074-11.668h7.594l5.243 6.817 6.064-6.817zM21.61 24.824h2.039l-13.163-17.115h-2.188l13.312 17.115z"></path>
</symbol>
<symbol id="icon-Youtube" viewBox="0 0 32 32">
<path d="M28.791 9.604c-0.152-0.563-0.449-1.077-0.861-1.49s-0.925-0.711-1.489-0.864c-2.088-0.573-10.441-0.583-10.441-0.583s-8.352-0.009-10.441 0.539c-0.563 0.16-1.075 0.462-1.487 0.878s-0.711 0.929-0.867 1.493c-0.551 2.088-0.556 6.419-0.556 6.419s-0.005 4.352 0.541 6.419c0.307 1.143 1.207 2.045 2.351 2.353 2.109 0.573 10.44 0.583 10.44 0.583s8.353 0.009 10.441-0.537c0.563-0.153 1.077-0.45 1.49-0.862s0.712-0.925 0.866-1.488c0.552-2.087 0.556-6.416 0.556-6.416s0.027-4.353-0.543-6.441zM13.328 20.007l0.007-8 6.943 4.007-6.949 3.993z"></path>
</symbol>
<symbol id="icon-frame" viewBox="0 0 32 32">
<path d="M32 2.667l-32 15 10.227 3.156 15.773-12.323-11.998 13.488 0.010 0.003-0.012-0.003v7.345l5.735-5.576 7.265 2.242 5-23.333z"></path>
</symbol>
<symbol id="icon-email" viewBox="0 0 24 32">
<path d="M20 8h-16c-1.1 0-1.99 0.9-1.99 2l-0.010 12c0 1.1 0.9 2 2 2h16c1.1 0 2-0.9 2-2v-12c0-1.1-0.9-2-2-2zM19.6 12.25l-7.070 4.42c-0.32 0.2-0.74 0.2-1.060 0l-7.070-4.42c-0.25-0.16-0.4-0.43-0.4-0.72 0-0.67 0.73-1.070 1.3-0.72l6.7 4.19 6.7-4.19c0.57-0.35 1.3 0.050 1.3 0.72 0 0.29-0.15 0.56-0.4 0.72z"></path>
</symbol>
<symbol id="icon-phone" viewBox="0 0 24 32">
<path d="M19.635 18.487l-2.451-0.28c-0.589-0.067-1.167 0.135-1.582 0.55l-1.775 1.775c-2.731-1.389-4.969-3.618-6.359-6.359l1.785-1.785c0.415-0.415 0.618-0.994 0.55-1.582l-0.28-2.432c-0.116-0.975-0.936-1.708-1.92-1.708h-1.669c-1.090 0-1.997 0.907-1.93 1.997 0.511 8.24 7.102 14.821 15.332 15.332 1.090 0.068 1.997-0.839 1.997-1.93v-1.669c0.010-0.975-0.724-1.795-1.698-1.911z"></path>
</symbol>
<symbol id="icon-person" viewBox="0 0 32 32">
<path d="M16 16c2.947 0 5.333-2.387 5.333-5.333s-2.387-5.333-5.333-5.333c-2.947 0-5.333 2.387-5.333 5.333s2.387 5.333 5.333 5.333zM16 18.667c-3.56 0-10.667 1.787-10.667 5.333v1.333c0 0.733 0.6 1.333 1.333 1.333h18.667c0.733 0 1.333-0.6 1.333-1.333v-1.333c0-3.547-7.107-5.333-10.667-5.333z"></path>
</symbol>
<symbol id="icon-close1" viewBox="0 0 32 32">
<path d="M32 3.223l-3.223-3.223-12.777 12.777-12.777-12.777-3.223 3.223 12.777 12.777-12.777 12.777 3.223 3.223 12.777-12.777 12.777 12.777 3.223-3.223-12.777-12.777 12.777-12.777z"></path>
</symbol>
</defs>
</svg>
