<svg width="23" height="23" viewBox="0 0 23 23" fill="none" xmlns="http://www.w3.org/2000/svg">
<g clip-path="url(#clip0_16264_4751)">
<path d="M2.24194 22.0852C2.24194 22.0706 4.91431 19.8022 11.2161 19.8022C17.3373 19.8022 20.1902 22.0706 20.1902 22.0852H2.24194Z" fill="#F6CC90"/>
<path d="M11.2158 19.8023C10.8249 19.8023 10.448 19.811 10.0847 19.8274C15.4473 20.0751 17.9574 22.0716 17.9574 22.0852H20.19C20.19 22.0706 17.337 19.8023 11.2158 19.8023Z" fill="#F0C17F"/>
<path d="M15.291 4.00735C14.5608 6.12534 12.5932 6.48982 12.5932 6.48982C12.5932 6.48982 11.2894 4.9288 12.0006 2.86583C12.7497 0.69282 14.7173 0.328339 14.7173 0.328339C14.7173 0.328339 16.0306 1.86187 15.291 4.00735Z" fill="#C5E866"/>
<path d="M14.7178 0.328339C14.7178 0.328339 14.1977 0.424734 13.5906 0.813556C13.9242 1.42888 14.3377 2.58317 13.8468 4.0073C13.4935 5.03189 12.8508 5.64607 12.2812 6.00718C12.4483 6.31563 12.5936 6.48973 12.5936 6.48973C12.5936 6.48973 14.5613 6.12529 15.2914 4.00726C16.031 1.86187 14.7178 0.328339 14.7178 0.328339Z" fill="#B2D94B"/>
<path d="M13.3293 13.9645C12.1297 14.1349 11.2467 13.8899 11.2467 13.8899C11.2467 13.8899 10.483 10.8254 12.8696 8.43115C15.3835 5.90924 18.3748 6.73924 18.3748 6.73924C18.3748 6.73924 19.031 9.24062 17.2922 11.5651" fill="#9CC042"/>
<path d="M18.3745 6.73923C18.3745 6.73923 17.5725 6.5168 16.45 6.65233C16.7531 6.69033 16.9299 6.73923 16.9299 6.73923C16.9299 6.73923 17.5861 9.24061 15.8473 11.5651L11.8843 13.9645C11.8405 13.9707 11.7971 13.9762 11.7542 13.9814C12.1281 14.0275 12.6824 14.0564 13.329 13.9645L17.2919 11.5651C19.0307 9.24061 18.3745 6.73923 18.3745 6.73923Z" fill="#85AA18"/>
<path d="M8.38636 12.3573C10.5155 14.0353 10.1522 16.4406 10.1522 16.4406C10.1522 16.4406 7.8533 17.3203 5.77952 15.6859C3.59513 13.9642 3.95843 11.559 3.95843 11.559C3.95843 11.559 6.22963 10.6574 8.38636 12.3573Z" fill="#C5E866"/>
<path d="M5.94454 8.89637C8.08818 11.6276 11.1562 11.1579 11.1562 11.1579C11.1562 11.1579 12.2756 8.20536 10.1876 5.54503C7.98828 2.74286 4.92022 3.21249 4.92022 3.21249C4.92022 3.21249 3.77306 6.12966 5.94454 8.89637Z" fill="#9CC042"/>
<path d="M16.7378 15.2027C14.8983 16.4745 13.0982 15.5982 13.0982 15.5982C13.0982 15.5982 12.9703 13.5657 14.762 12.3269C16.6492 11.0221 18.4493 11.8985 18.4493 11.8985C18.4493 11.8985 18.6011 13.9144 16.7378 15.2027Z" fill="#C5E866"/>
<path d="M18.4496 11.8985C18.4496 11.8985 17.5113 11.4419 16.2794 11.6789C16.7288 11.764 17.005 11.8985 17.005 11.8985C17.005 11.8985 17.1567 13.9144 15.2934 15.2027C14.7946 15.5475 14.2989 15.7342 13.8411 15.8235C14.5357 15.9553 15.6296 15.9691 16.738 15.2027C18.6014 13.9144 18.4496 11.8985 18.4496 11.8985Z" fill="#B2D94B"/>
<path d="M20.2446 21.7146C19.5953 21.2569 18.855 20.9161 18.1163 20.6318C16.7833 20.1189 14.5651 19.5105 11.493 19.4756C11.5429 19.0507 11.6611 18.4404 11.9379 17.7609C12.2129 17.0859 12.5851 16.4771 13.0515 15.9361C13.2705 16.0263 13.8342 16.2238 14.5709 16.2238C15.2531 16.2238 16.0835 16.0542 16.9245 15.4727C18.9197 14.0933 18.7836 11.9638 18.7768 11.8738C18.768 11.7574 18.6981 11.6544 18.5931 11.6033C18.5631 11.5887 18.2792 11.4543 17.8305 11.3632C18.1964 10.789 18.4648 10.1656 18.6302 9.5041C18.7329 9.09322 18.096 8.93405 17.9931 9.34484C17.8187 10.0425 17.5161 10.6929 17.0936 11.2803C16.3826 11.2635 15.4899 11.4246 14.5753 12.0569C13.8937 12.5282 13.4681 13.1017 13.2025 13.6498C12.6263 13.7231 12.1311 13.6962 11.7956 13.6549C12.4627 12.7552 14.2014 10.5744 16.1589 9.43542C16.525 9.22245 16.1948 8.6548 15.8287 8.86786C13.9238 9.97619 12.2657 11.9492 11.4666 12.9967C11.4205 11.9747 11.5977 10.1721 13.1022 8.6629C14.0828 7.67924 15.2499 7.10927 16.571 6.96893C17.2625 6.89547 17.8189 6.96521 18.0959 7.01511C18.125 7.18645 18.1609 7.46312 18.167 7.81044C18.1744 8.22991 18.831 8.22483 18.8236 7.79893C18.8117 7.11746 18.6973 6.6744 18.6925 6.65588C18.6628 6.54281 18.5753 6.45407 18.4626 6.42282C18.4298 6.41371 17.6426 6.20017 16.5319 6.31276C15.5097 6.41647 14.0042 6.82792 12.6372 8.19926C12.5231 8.31369 12.4164 8.42961 12.3159 8.54654C12.5002 7.9788 12.7016 7.36475 12.9073 6.7472C13.502 6.56575 14.9707 5.94399 15.6015 4.11427C16.3933 1.81741 15.0254 0.183153 14.9668 0.114686C14.8907 0.0256891 14.7728 -0.0159422 14.6576 0.00542065C14.5696 0.0217492 12.4926 0.431496 11.6903 2.75873C11.0242 4.69094 11.9734 6.20096 12.2636 6.5991C12.0721 7.17415 11.8852 7.74425 11.7125 8.27574C11.5795 7.38747 11.233 6.34529 10.4458 5.34233C9.24999 3.8186 7.80357 3.23165 6.8007 3.00752C5.71102 2.76399 4.90431 2.88275 4.87047 2.88796C4.75485 2.90565 4.65741 2.98353 4.61459 3.09235C4.60536 3.11582 4.38779 3.67677 4.31354 4.53702C4.27721 4.95898 4.93136 5.01532 4.96778 4.59349C5.00959 4.10889 5.10253 3.73066 5.16469 3.51952C5.44608 3.50285 6.0066 3.49961 6.68408 3.6544C7.97951 3.95037 9.07133 4.65469 9.92926 5.74774C10.742 6.78336 11.145 7.98476 11.1269 9.31862C11.121 9.75323 11.0689 10.1322 11.0114 10.4234C9.71261 8.0045 7.87361 6.14611 7.79298 6.06521C7.49407 5.7653 7.02908 6.22876 7.3279 6.52871C7.34729 6.54819 9.24302 8.46525 10.4989 10.8583C10.2054 10.8516 9.82477 10.8192 9.39782 10.7248C8.11233 10.4404 7.03731 9.757 6.20271 8.69363C5.62163 7.95319 5.23688 7.13147 5.05914 6.2513C4.97536 5.83621 4.33162 5.96614 4.4155 6.38127C4.61367 7.36283 5.04119 8.27723 5.6862 9.09904C6.85393 10.5869 8.28765 11.1564 9.2847 11.3722C9.78156 11.4798 10.2936 11.5308 10.802 11.5142V12.6966V12.7162V17.0429C10.703 16.8292 10.596 16.627 10.4833 16.4356C10.5278 16.047 10.6898 13.7549 8.58918 12.0993C6.31001 10.3031 3.93676 11.2141 3.83682 11.2538C3.7283 11.2969 3.65077 11.3944 3.63335 11.5099C3.61737 11.6158 3.26803 14.1248 5.57584 15.9437C6.64774 16.7885 7.76785 17.009 8.64526 17.009C9.21461 17.009 9.68153 16.9162 9.96696 16.8408C10.4241 17.6391 10.6943 18.5204 10.7755 19.4781C9.07632 19.5068 7.49114 19.7018 6.05812 20.0599C5.64723 20.1626 5.80641 20.7996 6.21733 20.697C7.60631 20.3499 9.14702 20.1612 10.802 20.1343V20.889C10.802 21.3125 11.4587 21.3125 11.4587 20.889V20.1324C15.331 20.1709 17.8057 21.119 19.0364 21.7569H3.35961C3.6787 21.5872 4.08722 21.3949 4.59095 21.2033C4.98678 21.0527 4.75332 20.4388 4.35754 20.5895C3.53975 20.9005 2.95744 21.2161 2.61288 21.4261C1.91333 21.8523 1.91333 21.9551 1.91333 22.0852C1.91333 22.2665 2.06029 22.4135 2.24165 22.4135H20.19C20.689 22.4135 20.4926 21.8894 20.2446 21.7146ZM14.9488 12.597C16.3341 11.6393 17.6498 11.955 18.1229 12.1207C18.1045 12.6278 17.921 13.9855 16.5511 14.9326C15.3089 15.7915 14.1004 15.5855 13.5499 15.4173C14.1971 14.8117 14.9843 14.3087 15.9081 13.913C16.2973 13.7462 16.0388 13.1426 15.6495 13.3094C14.816 13.6664 14.129 14.0916 13.5618 14.5472C13.7326 13.9379 14.1117 13.1758 14.9488 12.597ZM12.4721 14.3532C12.6192 14.3532 12.7759 14.3479 12.9402 14.336C12.8321 14.7111 12.7904 15.0411 12.7754 15.2729C12.1536 15.9328 11.737 16.6137 11.4587 17.2171V14.2699C11.6889 14.3096 12.0399 14.3532 12.4721 14.3532ZM12.3111 2.9728C12.8609 1.37807 14.1063 0.84956 14.5861 0.701333C14.8711 1.12146 15.5243 2.3236 14.9807 3.90033C14.5737 5.08094 13.7569 5.66356 13.1786 5.93922C13.6049 4.67916 14.0262 3.48542 14.3318 2.73597C14.4917 2.34382 13.8836 2.09583 13.7238 2.48802C13.4049 3.26991 12.9705 4.50165 12.5345 5.79104C12.236 5.21971 11.8892 4.19648 12.3111 2.9728ZM5.98234 15.428C5.14503 14.7681 4.60453 13.9281 4.37579 12.9315C4.26364 12.4429 4.2576 12.0329 4.26727 11.8041C4.82691 11.6473 6.54307 11.3228 8.18272 12.6152C8.99683 13.2568 9.521 14.0835 9.74076 15.0722C9.77272 15.2159 9.79544 15.3527 9.81155 15.4804C9.59289 15.2168 9.37037 14.9846 9.15613 14.7836C8.02342 13.7208 6.89906 13.2757 6.85174 13.2573C6.4571 13.1036 6.21882 13.7155 6.61347 13.8692C6.62384 13.8732 7.66576 14.2857 8.70681 15.2624C9.03942 15.5745 9.33233 15.9053 9.58623 16.2539C8.8588 16.4022 7.36292 16.516 5.98234 15.428Z" fill="white"/>
<path d="M19.8349 20.9239C19.2176 20.4829 18.5138 20.1545 17.8114 19.8806C16.5442 19.3864 14.4353 18.8001 11.5146 18.7665C11.562 18.3571 11.6744 17.769 11.9375 17.1142C12.199 16.4638 12.5529 15.8771 12.9963 15.3558C13.2045 15.4427 13.7404 15.6331 14.4408 15.6331C15.0894 15.6331 15.8788 15.4696 16.6784 14.9094C18.5753 13.5802 18.4458 11.5282 18.4394 11.4415C18.4311 11.3293 18.3646 11.23 18.2648 11.1808C18.2363 11.1668 17.9663 11.0373 17.5398 10.9495C17.8876 10.3962 18.1428 9.79551 18.3 9.15809C18.3976 8.76217 17.7921 8.6088 17.6944 9.00463C17.5286 9.67685 17.2409 10.3036 16.8391 10.8696C16.1632 10.8534 15.3145 11.0087 14.445 11.6179C13.797 12.072 13.3923 12.6247 13.1398 13.1528C12.592 13.2235 12.1212 13.1975 11.8023 13.1578C12.4365 12.2908 14.0895 10.1894 15.9506 9.09191C16.2986 8.88669 15.9846 8.33972 15.6366 8.54502C13.8256 9.61299 12.2492 11.5141 11.4895 12.5235C11.4456 11.5387 11.6141 9.80179 13.0445 8.34752C13.9767 7.39968 15.0863 6.85047 16.3423 6.71524C16.9998 6.64445 17.5287 6.71165 17.792 6.75974C17.8198 6.92484 17.8539 7.19143 17.8597 7.5261C17.8667 7.93029 18.491 7.9254 18.4839 7.51501C18.4726 6.85836 18.3638 6.43143 18.3592 6.41359C18.331 6.30463 18.2478 6.21913 18.1407 6.18901C18.1095 6.18024 17.3611 5.97447 16.3051 6.08297C15.3333 6.1829 13.902 6.57937 12.6024 7.90077C12.4939 8.01103 12.3925 8.12273 12.2969 8.2354C12.4722 7.68834 12.6636 7.09665 12.8592 6.50158C13.4246 6.32674 14.8209 5.72762 15.4206 3.96453C16.1734 1.75132 14.8729 0.176571 14.8172 0.110598C14.7448 0.0248418 14.6327 -0.0152734 14.5232 0.00531147C14.4395 0.0210454 12.4649 0.415871 11.7021 2.65836C11.0688 4.5202 11.9713 5.97523 12.2471 6.35888C12.0651 6.91299 11.8874 7.46233 11.7232 7.97446C11.5968 7.11854 11.2674 6.11431 10.519 5.14787C9.38208 3.67964 8.00695 3.11406 7.0535 2.89808C6.01752 2.66342 5.25056 2.77786 5.21839 2.78288C5.10847 2.79993 5.01583 2.87497 4.97513 2.97983C4.96635 3.00244 4.7595 3.54296 4.68891 4.37189C4.65437 4.77848 5.27628 4.83277 5.31091 4.4263C5.35066 3.95935 5.43901 3.59489 5.49811 3.39145C5.76564 3.37538 6.29853 3.37225 6.94263 3.52141C8.17422 3.8066 9.21224 4.48527 10.0279 5.53852C10.8006 6.53643 11.1837 7.69407 11.1665 8.97937C11.1609 9.39815 11.1114 9.76336 11.0567 10.0439C9.82191 7.7131 8.07354 5.92238 7.99688 5.84443C7.7127 5.55544 7.27063 6.00202 7.55472 6.29105C7.57315 6.30982 9.37547 8.15707 10.5694 10.463C10.2905 10.4565 9.92854 10.4253 9.52263 10.3343C8.30049 10.0603 7.27845 9.40178 6.48498 8.37713C5.93253 7.66366 5.56674 6.87186 5.39777 6.02374C5.31811 5.62377 4.7061 5.74897 4.78584 6.14898C4.97425 7.09479 5.38071 7.97589 5.99392 8.76778C7.10411 10.2015 8.46717 10.7503 9.41509 10.9582C9.88746 11.0618 10.3743 11.111 10.8576 11.095V12.2343V12.2533V16.4223C10.7635 16.2165 10.6617 16.0216 10.5546 15.8372C10.5969 15.4627 10.7509 13.2541 8.75384 11.6588C6.58699 9.92796 4.3307 10.8058 4.23568 10.8441C4.13251 10.8856 4.0588 10.9796 4.04224 11.0909C4.02705 11.1929 3.69493 13.6106 5.889 15.3632C6.90808 16.1772 7.97299 16.3897 8.80716 16.3897C9.34846 16.3897 9.79237 16.3003 10.0637 16.2276C10.4983 16.9969 10.7552 17.846 10.8324 18.7688C9.21698 18.7965 7.70992 18.9845 6.34752 19.3295C5.95688 19.4285 6.10821 20.0422 6.49888 19.9434C7.81941 19.6089 9.2842 19.4271 10.8576 19.4012V20.1284C10.8576 20.5364 11.4819 20.5364 11.4819 20.1284V19.3994C15.1634 19.4365 17.5162 20.35 18.6862 20.9647H3.78199C4.08535 20.8011 4.47374 20.6158 4.95265 20.4312C5.32897 20.2862 5.10702 19.6946 4.73074 19.8398C3.95325 20.1395 3.39964 20.4436 3.07205 20.6459C2.40698 21.0566 2.40698 21.1557 2.40698 21.281C2.40698 21.4558 2.5467 21.5974 2.71913 21.5974H19.7829C20.2574 21.5974 20.0707 21.0924 19.8349 20.9239ZM14.8001 12.1383C16.1171 11.2155 17.3679 11.5197 17.8178 11.6794C17.8002 12.168 17.6258 13.4763 16.3234 14.3889C15.1424 15.2166 13.9935 15.018 13.4701 14.856C14.0854 14.2724 14.8338 13.7878 15.7121 13.4064C16.0821 13.2457 15.8364 12.6641 15.4662 12.8248C14.6738 13.1689 14.0207 13.5786 13.4814 14.0175C13.6438 13.4304 14.0042 12.696 14.8001 12.1383ZM12.4455 13.8306C12.5853 13.8306 12.7342 13.8255 12.8905 13.814C12.7877 14.1755 12.748 14.4935 12.7338 14.7168C12.1426 15.3527 11.7465 16.0088 11.4819 16.5902V13.7503C11.7008 13.7886 12.0345 13.8306 12.4455 13.8306ZM12.2923 2.86463C12.815 1.32798 13.9991 0.818711 14.4552 0.675882C14.7262 1.0807 15.3472 2.23907 14.8304 3.75839C14.4435 4.896 13.6669 5.4574 13.1171 5.72303C13.5224 4.50885 13.9229 3.35859 14.2134 2.63643C14.3655 2.25856 13.7874 2.0196 13.6354 2.39751C13.3322 3.15092 12.9192 4.3378 12.5048 5.58024C12.2209 5.02972 11.8913 4.04375 12.2923 2.86463ZM6.27547 14.8662C5.47943 14.2304 4.96555 13.421 4.7481 12.4607C4.64147 11.9899 4.63572 11.5948 4.64492 11.3743C5.17698 11.2232 6.80857 10.9106 8.36741 12.1559C9.1414 12.7741 9.63975 13.5707 9.84868 14.5234C9.87906 14.6619 9.90066 14.7937 9.91597 14.9167C9.70809 14.6627 9.49654 14.439 9.29285 14.2453C8.21596 13.2212 7.14702 12.7924 7.10203 12.7746C6.72683 12.6265 6.5003 13.2161 6.87549 13.3642C6.88536 13.3681 7.87593 13.7655 8.86568 14.7067C9.1819 15.0075 9.46037 15.3262 9.70176 15.6621C9.01018 15.805 7.58801 15.9147 6.27547 14.8662Z" fill="#1E1E1E"/>
</g>
<defs>
<clipPath id="clip0_16264_4751">
<rect width="22.4135" height="22.4135" fill="white"/>
</clipPath>
</defs>
</svg>
